<svg width="218" height="48" viewBox="0 0 218 48" fill="none" xmlns="http://www.w3.org/2000/svg">
<path d="M159.149 6.11725H158.745V44.5038H159.149V6.11725Z" fill="#424143"/>
<path d="M215.453 37.0858L215.354 36.982L208.097 29.3778V36.4686V36.5283H208.04H206.681H206.623V36.4686V25.8771V25.7314L206.722 25.8351L213.979 33.4714V26.2845V26.2248H214.036H215.395H215.453V26.2845V36.9401V37.0858ZM196.986 36.5283V34.9617L200.99 25.8694L201.043 25.7524L201.095 25.8694L205.792 36.4455L205.829 36.5283H205.74H204.316H204.28L204.264 36.4941L201.038 29.2155L197.851 36.493L197.835 36.5283H197.798H196.986ZM196.986 27.3918L197.623 26.3143L197.676 26.2248H197.574H196.986V27.3918ZM196.986 26.2259V27.3929L194.367 31.8176V36.4698V36.5294H194.309H192.952H192.895V36.4698V31.8342L189.86 26.6686V26.227H191.206H191.238L191.255 26.2557L193.651 30.2731L196.018 26.2557L196.035 26.227H196.068H196.986V26.2259ZM196.986 34.9617L196.333 36.4455L196.297 36.5283H196.385H196.987V34.9617H196.986ZM189.86 36.5283H190.063H190.121V36.4686V35.0942V35.0346H190.063H189.86V36.5283ZM189.86 26.2259V26.6675L189.653 26.3154L189.601 26.2259H189.703H189.86ZM189.86 35.0346H186.879V26.2845V26.2248H186.821H185.48H185.422V26.2845V36.4686V36.5283H185.48H189.86V35.0346ZM184.586 36.5283H184.496H183.073H183.036L183.02 36.4941L179.795 29.2155L176.608 36.493L176.592 36.5283H176.555H175.141H175.051L175.088 36.4455L179.746 25.8694L179.798 25.7524L179.85 25.8694L184.547 36.4455L184.586 36.5283ZM174.551 36.5283H174.422H172.692H172.668L172.649 36.5096L168.334 31.652V36.4686V36.5283H168.278H166.919H166.86V36.4686V26.2845V26.2248H166.919H168.278H168.334V26.2845V30.2831L172.457 26.2414L172.474 26.2248H172.497H174.39H174.534L174.429 26.3275L169.662 31.0128L174.464 36.4289L174.551 36.5283Z" fill="#D71921"/>
<path d="M194.53 21.3395L195.186 21.0436C195.205 21.1739 195.22 21.3064 195.236 21.441C195.236 21.4421 194.942 21.3957 194.53 21.3395Z" fill="#FFDE00"/>
<path d="M195.217 21.2772L194.946 21.3987C194.741 21.3689 194.439 21.3259 194.108 21.2839L195.153 20.8136C195.178 20.966 195.199 21.1216 195.217 21.2772Z" fill="#FFDE00"/>
<path d="M195.187 21.0437L194.531 21.3396C194.278 21.3054 193.98 21.2656 193.679 21.2292L195.114 20.5844C195.142 20.7346 195.166 20.8891 195.187 21.0437Z" fill="#FFDE00"/>
<path d="M195.153 20.8129L194.109 21.2832C193.827 21.2468 193.525 21.2104 193.239 21.1805L195.069 20.3581C195.102 20.5071 195.127 20.6595 195.153 20.8129Z" fill="#FFDE00"/>
<path d="M195.113 20.5842L193.678 21.2289C193.367 21.1925 193.052 21.1594 192.781 21.1396L195.02 20.1338C195.056 20.2807 195.087 20.4319 195.113 20.5842Z" fill="#FFDD00"/>
<path d="M195.071 20.3582L193.24 21.1807C192.887 21.1442 192.559 21.1199 192.331 21.1199H192.279L194.97 19.91C195.006 20.0579 195.04 20.2058 195.071 20.3582Z" fill="#FFDA00"/>
<path d="M195.022 20.1339L192.782 21.1396C192.611 21.1264 192.455 21.1197 192.33 21.1197C192.221 21.1197 192.018 21.1186 191.749 21.1109L194.911 19.689C194.949 19.8358 194.987 19.9826 195.022 20.1339Z" fill="#FFDA00"/>
<path d="M194.97 19.9112L192.279 21.1212C192.091 21.1201 191.721 21.1178 191.246 21.0924L194.849 19.4729C194.891 19.6153 194.932 19.7622 194.97 19.9112Z" fill="#FFD900"/>
<path d="M194.911 19.6902L191.747 21.1121C191.479 21.1044 191.144 21.0889 190.768 21.0591L194.782 19.2552C194.828 19.3976 194.87 19.5434 194.911 19.6902Z" fill="#FFD700"/>
<path d="M194.848 19.4717L191.245 21.0912C190.965 21.0758 190.649 21.0526 190.313 21.0173L194.71 19.0412C194.76 19.1825 194.806 19.326 194.848 19.4717Z" fill="#FFD700"/>
<path d="M194.782 19.255L190.768 21.0589C190.49 21.0368 190.191 21.007 189.878 20.9662L194.633 18.8288C194.686 18.9679 194.734 19.1103 194.782 19.255Z" fill="#FFD600"/>
<path d="M194.709 19.041L190.312 21.0172C190.041 20.9896 189.755 20.9521 189.465 20.9057L194.553 18.6193C194.608 18.7573 194.66 18.8976 194.709 19.041Z" fill="#FFD600"/>
<path d="M194.633 18.8284L189.878 20.9668C189.615 20.9326 189.344 20.8896 189.071 20.8376L194.469 18.4111C194.526 18.548 194.581 18.6882 194.633 18.8284Z" fill="#FFD600"/>
<path d="M194.553 18.6187L189.465 20.9051C189.211 20.8642 188.951 20.8168 188.694 20.7582L194.378 18.2036C194.44 18.3394 194.497 18.4774 194.553 18.6187Z" fill="#FFD300"/>
<path d="M194.469 18.4122L189.071 20.8376C188.826 20.7912 188.581 20.7371 188.337 20.6742L194.286 18.0015C194.349 18.1351 194.41 18.272 194.469 18.4122Z" fill="#FFD300"/>
<path d="M194.38 18.2043L188.696 20.7589C188.461 20.707 188.227 20.6463 187.999 20.5779L194.188 17.7969C194.255 17.9305 194.318 18.0663 194.38 18.2043Z" fill="#FFD300"/>
<path d="M194.285 18.0002L188.337 20.673C188.115 20.6144 187.894 20.5504 187.679 20.4765L194.085 17.5973C194.153 17.7286 194.221 17.8633 194.285 18.0002Z" fill="#FFD300"/>
<path d="M194.187 17.7982L187.998 20.5791C187.788 20.5162 187.579 20.4455 187.377 20.3671L193.978 17.3996C194.049 17.5299 194.12 17.6624 194.187 17.7982Z" fill="#FFD300"/>
<path d="M194.085 17.5969L187.679 20.4761C187.477 20.4065 187.282 20.3303 187.094 20.2453L193.866 17.2016C193.941 17.3308 194.013 17.4622 194.085 17.5969Z" fill="#FFD200"/>
<path d="M193.978 17.3994L187.377 20.3669C187.188 20.293 187.004 20.2091 186.83 20.1197L193.751 17.0097C193.827 17.1356 193.903 17.2648 193.978 17.3994Z" fill="#FFD200"/>
<path d="M193.867 17.203L187.094 20.2467C186.917 20.1661 186.748 20.0789 186.585 19.9828L193.631 16.8166C193.711 16.9414 193.789 17.0716 193.867 17.203Z" fill="#FFD200"/>
<path d="M193.752 17.0083L186.831 20.1171C186.664 20.0321 186.506 19.9383 186.358 19.8367L193.507 16.6252C193.588 16.7488 193.671 16.877 193.752 17.0083Z" fill="#FFD200"/>
<path d="M193.631 16.8155L186.585 19.9817C186.431 19.8901 186.286 19.7919 186.151 19.6837L193.379 16.4358C193.464 16.5594 193.548 16.6853 193.631 16.8155Z" fill="#FFD000"/>
<path d="M193.505 16.6256L186.358 19.8371C186.216 19.74 186.082 19.6351 185.961 19.5225L193.244 16.2492C193.333 16.3717 193.42 16.4964 193.505 16.6256Z" fill="#FFD000"/>
<path d="M193.379 16.4355L186.151 19.6835C186.021 19.5797 185.902 19.4704 185.793 19.3511L193.108 16.0635C193.198 16.1849 193.289 16.3086 193.379 16.4355Z" fill="#FFD000"/>
<path d="M193.244 16.2489L185.961 19.5223C185.844 19.413 185.739 19.2971 185.644 19.1734L192.964 15.8835C193.058 16.0017 193.153 16.1231 193.244 16.2489Z" fill="#FFCE01"/>
<path d="M193.108 16.0656L185.793 19.3532C185.688 19.2385 185.595 19.1159 185.515 18.9856L192.819 15.7035C192.916 15.8195 193.012 15.9398 193.108 16.0656Z" fill="#FFCE01"/>
<path d="M192.965 15.8827L185.644 19.1725C185.552 19.051 185.472 18.9219 185.406 18.785L192.668 15.5227C192.767 15.6386 192.866 15.759 192.965 15.8827Z" fill="#FFCE01"/>
<path d="M192.82 15.7027L185.517 18.9849C185.438 18.8579 185.372 18.7232 185.321 18.5797L192.513 15.3473C192.615 15.4609 192.718 15.5791 192.82 15.7027Z" fill="#FFCE01"/>
<path d="M192.669 15.5239L185.407 18.7862C185.344 18.6526 185.292 18.5124 185.254 18.3623L192.353 15.1718C192.458 15.2844 192.563 15.4015 192.669 15.5239Z" fill="#FDCA03"/>
<path d="M192.512 15.347L185.32 18.5795C185.268 18.4393 185.232 18.2914 185.209 18.1368L192.189 15.0004C192.295 15.1097 192.404 15.2256 192.512 15.347Z" fill="#F4C107"/>
<path d="M192.353 15.1725L185.255 18.363C185.219 18.2162 185.196 18.0627 185.188 17.8993L192.018 14.8303C192.129 14.9385 192.24 15.0522 192.353 15.1725Z" fill="#EFBD09"/>
<path d="M192.187 15.0003L185.21 18.1367C185.194 18.0252 185.185 17.9114 185.185 17.7911L185.26 17.6211L191.843 14.6613C191.957 14.7685 192.071 14.8799 192.187 15.0003Z" fill="#E8B60C"/>
<path d="M192.019 14.8293L185.188 17.8983C185.187 17.863 185.185 17.8277 185.185 17.7902L185.395 17.3121L191.663 14.4937C191.78 14.5997 191.898 14.7122 192.019 14.8293Z" fill="#E4B20D"/>
<path d="M191.843 14.6615L185.26 17.6213L185.531 17.0064L191.481 14.3325C191.598 14.4352 191.72 14.5446 191.843 14.6615Z" fill="#DEAB0E"/>
<path d="M191.665 14.4955L185.396 17.314L185.666 16.6991L191.292 14.171C191.411 14.2715 191.536 14.3785 191.665 14.4955Z" fill="#D9A60E"/>
<path d="M191.481 14.3325L185.53 17.0063L185.801 16.3913L191.095 14.0123C191.218 14.1094 191.346 14.2166 191.481 14.3325Z" fill="#D3A10D"/>
<path d="M191.292 14.1715L185.667 16.6996L185.938 16.0847L190.896 13.8557C191.019 13.9495 191.152 14.0545 191.292 14.1715Z" fill="#CC9B0D"/>
<path d="M191.095 14.0123L185.801 16.3914L186.071 15.7764L190.686 13.7032C190.81 13.7926 190.947 13.8953 191.095 14.0123Z" fill="#C1910C"/>
<path d="M190.893 13.857L185.935 16.0859L186.206 15.4722L190.471 13.5556C190.591 13.6351 190.735 13.7366 190.893 13.857Z" fill="#AF8009"/>
<path d="M190.687 13.7043L186.073 15.7776L186.342 15.1638L190.249 13.4084C190.357 13.4758 190.507 13.5741 190.687 13.7043Z" fill="#9E7104"/>
<path d="M190.472 13.5544L186.207 15.471L186.469 14.8737L190.056 13.2928C190.056 13.2939 190.214 13.38 190.472 13.5544Z" fill="#926600"/>
<path d="M190.251 13.4087L186.343 15.1641L186.47 14.8737L190.058 13.2928C190.058 13.2939 190.127 13.3315 190.251 13.4087Z" fill="#8A5E00"/>
<path d="M195.035 7.45969V6.15257L195.238 6.11725C195.196 6.58534 195.126 7.03135 195.035 7.45969Z" fill="#FFDE00"/>
<path d="M194.834 8.25345V6.1868L195.236 6.11725C195.167 6.88231 195.028 7.59327 194.834 8.25345Z" fill="#FFDE00"/>
<path d="M195.035 6.1521V7.45921C194.93 7.9538 194.794 8.42299 194.632 8.8679V6.22276L195.035 6.1521Z" fill="#FFDE00"/>
<path d="M194.835 6.18613V8.25279C194.72 8.6447 194.586 9.01895 194.434 9.37774V6.25679L194.835 6.18613Z" fill="#FFDE00"/>
<path d="M194.632 6.2218V8.86694C194.514 9.19813 194.379 9.51608 194.233 9.82077V6.29245L194.632 6.2218Z" fill="#FFDE00"/>
<path d="M194.433 6.25705V9.378C194.31 9.66835 194.176 9.94876 194.031 10.2181V6.3277L194.433 6.25705Z" fill="#FFDD00"/>
<path d="M194.233 6.29272V9.82215C194.107 10.0827 193.973 10.3333 193.831 10.5751V6.36228L194.233 6.29272Z" fill="#FFDD00"/>
<path d="M194.032 6.32632V10.2168C193.906 10.453 193.771 10.6826 193.631 10.9023V6.39587L194.032 6.32632Z" fill="#FFDD00"/>
<path d="M193.832 6.36078V10.5736C193.703 10.791 193.569 11.003 193.43 11.2062V6.43143L193.832 6.36078Z" fill="#FFDA00"/>
<path d="M193.631 6.39685V10.9033C193.502 11.1075 193.369 11.3018 193.229 11.4917V6.4664L193.631 6.39685Z" fill="#FFDA00"/>
<path d="M193.429 6.43048V11.2052C193.299 11.3951 193.166 11.5783 193.028 11.755V6.49893L193.429 6.43048Z" fill="#FFDA00"/>
<path d="M193.228 6.46573V11.4922C193.098 11.6699 192.964 11.841 192.826 12.0088V6.53639L193.228 6.46573Z" fill="#FFD900"/>
<path d="M193.027 6.50098V11.7571C192.897 11.9248 192.762 12.0882 192.625 12.245V6.56942L193.027 6.50098Z" fill="#FFD900"/>
<path d="M192.826 6.53625V12.0087C192.695 12.1688 192.561 12.3211 192.425 12.4701V6.6047L192.826 6.53625Z" fill="#FFD900"/>
<path d="M192.625 6.57111V12.2467C192.495 12.3979 192.361 12.5448 192.226 12.6861V6.63956L192.625 6.57111Z" fill="#FFD700"/>
<path d="M192.425 6.60431V12.4698C192.294 12.6143 192.16 12.7546 192.024 12.8893V6.67387L192.425 6.60431Z" fill="#FFD700"/>
<path d="M192.226 6.63916V12.6857C192.094 12.8236 191.959 12.9561 191.824 13.0853V6.70871L191.889 6.69768L192.226 6.63916Z" fill="#FFD700"/>
<path d="M192.024 6.67441V12.8898C191.892 13.0223 191.757 13.1493 191.622 13.274V6.73403C191.727 6.72188 191.816 6.71084 191.888 6.69759L192.024 6.67441Z" fill="#FFD600"/>
<path d="M191.824 6.70844V13.085C191.693 13.2109 191.558 13.3345 191.423 13.4527V6.7548C191.581 6.73934 191.717 6.72388 191.824 6.70844Z" fill="#FFD600"/>
<path d="M191.621 6.73468V13.2724C191.489 13.395 191.355 13.5131 191.22 13.6269V6.77552C191.37 6.76118 191.506 6.74793 191.621 6.73468Z" fill="#FFD600"/>
<path d="M191.422 6.75476V13.4526C191.288 13.5696 191.155 13.6834 191.02 13.7937V6.79451L191.422 6.75476Z" fill="#FFD300"/>
<path d="M191.221 6.77487V13.6262C191.086 13.7399 190.953 13.8481 190.818 13.954V6.81461L191.221 6.77487Z" fill="#FFD300"/>
<path d="M191.02 6.79495V13.7942C190.886 13.9035 190.753 14.0073 190.62 14.11V6.83691C190.759 6.82145 190.894 6.8082 191.02 6.79495Z" fill="#FFD300"/>
<path d="M190.818 6.81668V13.954C190.685 14.0599 190.552 14.1615 190.418 14.2597V6.85753C190.557 6.84318 190.692 6.82883 190.818 6.81668Z" fill="#FFD200"/>
<path d="M190.62 6.83636V14.1094C190.485 14.2121 190.351 14.3103 190.218 14.4063V6.88273C190.356 6.86507 190.489 6.85071 190.62 6.83636Z" fill="#FFD200"/>
<path d="M190.418 6.85971V14.2608C190.283 14.3601 190.15 14.4551 190.017 14.5467V6.90828C190.154 6.89063 190.289 6.87407 190.418 6.85971Z" fill="#FFD200"/>
<path d="M190.217 6.88187V14.4055C190.082 14.5016 189.948 14.5932 189.816 14.6826V6.93375C189.953 6.91498 190.088 6.89843 190.217 6.88187Z" fill="#FFD200"/>
<path d="M190.017 6.90811V14.5465C189.882 14.6404 189.747 14.7298 189.614 14.816V6.96441C189.752 6.94344 189.885 6.92467 190.017 6.90811Z" fill="#FFD000"/>
<path d="M189.815 6.93558V14.6844C189.68 14.775 189.546 14.8622 189.413 14.9461V6.99629C189.549 6.97311 189.684 6.95434 189.815 6.93558Z" fill="#FFD000"/>
<path d="M189.615 6.96344V14.8149C189.479 14.9033 189.345 14.9883 189.214 15.0689V7.02746C189.349 7.00428 189.482 6.98331 189.615 6.96344Z" fill="#FFCE01"/>
<path d="M189.413 6.99585V14.9456C189.278 15.0317 189.145 15.1134 189.012 15.1929V7.06541C189.146 7.04001 189.281 7.01573 189.413 6.99585Z" fill="#FFCE01"/>
<path d="M189.214 7.02863V15.0701C189.078 15.154 188.945 15.2334 188.812 15.3107V7.1037C188.946 7.07721 189.081 7.05181 189.214 7.02863Z" fill="#FFCE01"/>
<path d="M189.012 7.06512V15.1915C188.876 15.2732 188.742 15.3527 188.611 15.4267V7.14571C188.745 7.11702 188.88 7.09052 189.012 7.06512Z" fill="#FFCE01"/>
<path d="M188.812 7.10367V15.3107C188.674 15.3912 188.541 15.4674 188.411 15.5403V7.19089C188.545 7.15998 188.678 7.13127 188.812 7.10367Z" fill="#FCC806"/>
<path d="M188.612 7.14548V15.4264C188.474 15.5048 188.34 15.5799 188.211 15.6506V7.24042C188.344 7.2062 188.478 7.17528 188.612 7.14548Z" fill="#F8C408"/>
<path d="M188.413 7.19058V15.54C188.275 15.6162 188.141 15.6901 188.011 15.7597V7.29435C188.143 7.25681 188.278 7.2237 188.413 7.19058Z" fill="#F3BD0C"/>
<path d="M188.21 7.2406V15.6507C188.07 15.7258 187.937 15.7976 187.807 15.8649V7.3521C187.94 7.31346 188.073 7.27593 188.21 7.2406Z" fill="#EEB50F"/>
<path d="M188.009 7.29349V15.7588C187.869 15.8328 187.735 15.9045 187.607 15.9697V7.41492C187.739 7.37187 187.873 7.33212 188.009 7.29349Z" fill="#ECB110"/>
<path d="M187.807 7.35211V15.866C187.667 15.94 187.533 16.0096 187.406 16.0736V7.48459C187.538 7.43823 187.671 7.39407 187.807 7.35211Z" fill="#E7AC11"/>
<path d="M187.608 7.41772V15.9725C187.466 16.0464 187.331 16.1149 187.206 16.1801V7.56345C187.337 7.51157 187.472 7.46299 187.608 7.41772Z" fill="#E2A612"/>
<path d="M187.406 7.48456V16.0735L187.024 16.27L187.004 16.28V7.64463C187.135 7.58722 187.269 7.53423 187.406 7.48456Z" fill="#DEA013"/>
<path d="M187.205 7.56079V16.1774L187.022 16.2701C186.947 16.3088 186.873 16.3485 186.804 16.3893V7.73633C186.934 7.6745 187.067 7.61599 187.205 7.56079Z" fill="#D99914"/>
<path d="M187.004 7.64444V16.2798C186.862 16.3538 186.728 16.4332 186.604 16.515V7.84095C186.731 7.7714 186.866 7.70406 187.004 7.64444Z" fill="#D79514"/>
<path d="M186.805 7.73914V16.3921C186.66 16.4771 186.527 16.5677 186.403 16.6582V7.95883C186.531 7.87934 186.666 7.80758 186.805 7.73914Z" fill="#D29014"/>
<path d="M186.606 7.84V16.514C186.458 16.6122 186.324 16.7138 186.205 16.8153V8.08949C186.33 8.00007 186.465 7.91838 186.606 7.84Z" fill="#CD8A14"/>
<path d="M186.401 7.95685V16.6562C186.252 16.7689 186.119 16.8836 186 16.9985V8.24498C186.125 8.1412 186.26 8.04517 186.401 7.95685Z" fill="#CB8614"/>
<path d="M186.203 8.08969V16.8166C186.049 16.9458 185.915 17.0772 185.8 17.2042V8.43193C185.92 8.30718 186.055 8.19568 186.203 8.08969Z" fill="#C78014"/>
<path d="M186 8.24506V16.9986C185.841 17.1531 185.708 17.3033 185.599 17.4423V8.66568C185.714 8.51333 185.849 8.37312 186 8.24506Z" fill="#C27D13"/>
<path d="M185.8 8.43079V17.203C185.627 17.3951 185.495 17.5751 185.4 17.7219V8.99271C185.498 8.78737 185.636 8.59969 185.8 8.43079Z" fill="#C07913"/>
<path d="M185.599 8.66571V17.4412C185.316 17.8023 185.199 18.0793 185.199 18.0793V9.86574C185.201 9.39544 185.35 9.00022 185.599 8.66571Z" fill="#BB7412"/>
<path d="M185.402 8.99246V17.7217C185.26 17.9358 185.199 18.0793 185.199 18.0793V9.86571C185.201 9.54004 185.273 9.2519 185.402 8.99246Z" fill="#B26910"/>
<path d="M136.963 43.1626V42.7154H137.634L137.152 41.4017C137.09 41.2394 137.027 41.0407 136.963 40.8044V40.248H137.168L138.8 44.5116H138.3L137.783 43.1626H136.963ZM145.086 44.5116H144.535L142.269 40.9491H142.246C142.275 41.3675 142.291 41.7506 142.291 42.0983V44.5116H141.847V40.2657H142.391L144.652 43.815H144.674C144.671 43.7631 144.662 43.5953 144.651 43.3116C144.636 43.0268 144.633 42.8258 144.636 42.7022V40.2657H145.087V44.5116H145.086ZM149.352 42.3886L150.456 40.2657H150.977L149.595 42.8645V44.5105H149.106V42.8876L147.725 40.2646H148.253L149.352 42.3886ZM136.963 40.248V40.8044L136.959 40.789C136.917 40.9744 136.857 41.1798 136.78 41.4017L136.292 42.7154H136.963V43.1626H136.122L135.611 44.5116H135.122L136.762 40.248H136.963ZM131.256 42.8247V42.3953C131.487 42.3644 131.667 42.3003 131.793 42.2065C131.984 42.0663 132.081 41.84 132.081 41.5286C132.081 41.2482 131.991 41.0396 131.811 40.9016C131.679 40.8 131.494 40.7371 131.256 40.7095V40.2746C132.137 40.333 132.579 40.7427 132.579 41.5033C132.579 41.9327 132.436 42.2628 132.15 42.4936C131.927 42.6746 131.628 42.785 131.256 42.8247ZM131.256 40.2746V40.7095C131.168 40.6996 131.073 40.6951 130.97 40.6951H130.431V42.4195H130.864C131.008 42.4195 131.137 42.4118 131.255 42.3964V42.8258C131.148 42.838 131.037 42.8424 130.918 42.8424H130.43V44.5139H129.948V40.2679H131.022C131.104 40.2657 131.181 40.2679 131.256 40.2746ZM117.847 44.5712V44.1373H117.85C118.311 44.1373 118.659 43.9894 118.894 43.6947C119.128 43.3966 119.245 42.9606 119.245 42.3843C119.245 41.8112 119.128 41.3796 118.894 41.0826C118.661 40.7879 118.316 40.6411 117.857 40.6411H117.847V40.2006H117.857C118.454 40.2006 118.918 40.3949 119.253 40.7812C119.589 41.1698 119.756 41.7031 119.756 42.3843C119.756 43.0632 119.588 43.5998 119.253 43.9872C118.916 44.378 118.449 44.5701 117.85 44.5701H117.847V44.5712ZM124.296 44.5116L122.889 40.7481H122.865C122.892 41.0474 122.906 41.4017 122.906 41.8112V44.5116H122.461V40.2657H123.187L124.501 43.7686H124.524L125.849 40.2657H126.57V44.5116H126.088V41.776C126.088 41.4624 126.101 41.1213 126.128 40.7537H126.106L124.685 44.5105H124.296V44.5116ZM117.847 40.2006V40.6411C117.392 40.6422 117.047 40.7912 116.808 41.0871C116.569 41.3841 116.45 41.8168 116.45 42.3843C116.45 42.9583 116.569 43.3944 116.808 43.6924C117.048 43.9894 117.394 44.1373 117.847 44.1373V44.5712C117.238 44.5712 116.768 44.3802 116.438 43.9983C116.105 43.6151 115.939 43.0753 115.939 42.3787C115.939 41.6877 116.105 41.1522 116.439 40.7724C116.771 40.3938 117.24 40.2027 117.847 40.2006ZM97.6103 42.7463V42.3169C97.8696 42.2971 98.0633 42.2319 98.196 42.1138C98.3546 41.9769 98.4347 41.7682 98.4347 41.4923C98.4347 41.2108 98.3546 41.0087 98.1922 40.884C98.0618 40.7846 97.8681 40.7249 97.6103 40.7051V40.2679C98.0358 40.2878 98.3546 40.3871 98.5696 40.5638C98.8121 40.7636 98.9341 41.0639 98.9341 41.4624C98.9341 42.0255 98.6558 42.4052 98.0999 42.6018L99.2262 44.5094H98.6558L97.6515 42.7441H97.6103V42.7463ZM104.25 43.3856C104.25 43.7587 104.117 44.0501 103.853 44.2588C103.588 44.4686 103.229 44.5712 102.775 44.5712C102.283 44.5712 101.905 44.5061 101.641 44.3769V43.8989C101.81 43.9729 101.995 44.0314 102.196 44.0744C102.396 44.1164 102.595 44.1373 102.792 44.1373C103.114 44.1373 103.356 44.0755 103.519 43.9497C103.681 43.8261 103.764 43.6527 103.764 43.4297C103.764 43.2829 103.735 43.1626 103.677 43.0688C103.619 42.9749 103.521 42.8887 103.388 42.8082C103.252 42.7287 103.046 42.6404 102.77 42.5388C102.386 42.3975 102.109 42.2297 101.942 42.0376C101.778 41.8433 101.695 41.5905 101.695 41.278C101.695 40.9502 101.814 40.6897 102.055 40.4975C102.296 40.3032 102.614 40.2061 103.008 40.2061C103.421 40.2061 103.799 40.2834 104.147 40.438L103.996 40.8685C103.654 40.7195 103.32 40.6477 102.996 40.6477C102.742 40.6477 102.541 40.704 102.398 40.8144C102.253 40.9292 102.182 41.0826 102.182 41.2847C102.182 41.4315 102.209 41.5518 102.26 41.6457C102.315 41.7395 102.404 41.8267 102.529 41.904C102.655 41.9824 102.848 42.0674 103.107 42.1635C103.542 42.3224 103.841 42.4925 104.005 42.6746C104.168 42.8567 104.25 43.0941 104.25 43.3856ZM112.196 40.6477C111.741 40.6477 111.381 40.8022 111.115 41.1125C110.853 41.4238 110.72 41.8488 110.72 42.3886C110.72 42.9451 110.848 43.3745 111.102 43.6759C111.357 43.9795 111.72 44.1308 112.191 44.1308C112.48 44.1308 112.811 44.0778 113.181 43.9718V44.4046C112.892 44.5171 112.538 44.5701 112.118 44.5701C111.507 44.5701 111.035 44.3814 110.704 44.0016C110.37 43.6229 110.205 43.083 110.205 42.3843C110.205 41.946 110.285 41.5629 110.446 41.2328C110.604 40.9038 110.836 40.651 111.138 40.4733C111.439 40.2944 111.793 40.2061 112.202 40.2061C112.638 40.2061 113.017 40.2878 113.343 40.4501L113.139 40.874C112.824 40.7217 112.511 40.6477 112.196 40.6477ZM97.6103 40.2701V40.7073C97.5478 40.704 97.4837 40.7007 97.4144 40.7007H96.7875V42.3235H97.4479C97.5051 42.3235 97.5592 42.3224 97.6103 42.318V42.7474H96.7875V44.5127H96.3056V40.2668H97.4426C97.4998 40.2657 97.5569 40.2668 97.6103 40.2701ZM42.5961 43.1626V42.7154H43.268L42.7849 41.4017C42.7245 41.2394 42.6609 41.0407 42.5972 40.8044V40.248H42.8021L44.4337 44.5116H43.9344L43.4179 43.1626H42.5961ZM50.4877 44.5116H49.9378L47.671 40.9491H47.6484C47.6774 41.3675 47.6937 41.7506 47.6937 42.0983V44.5116H47.2483V40.2657H47.7917L50.0531 43.815H50.0758C50.0714 43.7631 50.0639 43.5953 50.0499 43.3116C50.037 43.0268 50.0316 42.8258 50.0359 42.7022V40.2657H50.4867V44.5116H50.4877ZM57.1586 44.515C56.9806 44.515 56.8415 44.4884 56.738 44.4366V44.0149C56.8728 44.0546 57.0119 44.0755 57.1586 44.0755C57.3451 44.0755 57.4885 44.017 57.5856 43.9C57.6827 43.7852 57.7312 43.6163 57.7312 43.3977V40.2668H58.2132V43.3557C58.2132 43.7233 58.1216 44.0104 57.9393 44.2113C57.7593 44.4134 57.4982 44.515 57.1586 44.515ZM63.9297 44.5116H61.6188V40.2657H63.9297V40.7062H62.1008V42.0729H63.8197V42.5079H62.1008V44.0711H63.9297V44.5116ZM70.5402 44.5116H70.0635L69.2267 41.6688C69.1868 41.543 69.1426 41.3841 69.093 41.193C69.0433 40.9998 69.0186 40.8851 69.0164 40.8475C68.9743 41.1026 68.9086 41.3818 68.8169 41.6866L68.0059 44.5127H67.5304L66.4272 40.2668H66.9384L67.5929 42.8899C67.6835 43.2575 67.7504 43.5909 67.7924 43.8878C67.8421 43.5346 67.9197 43.188 68.0189 42.849L68.763 40.2668H69.273L70.0538 42.8722C70.1444 43.1714 70.221 43.5103 70.2835 43.8878C70.3202 43.6141 70.3881 43.2784 70.4873 42.8833L71.1408 40.2668H71.6509L70.5402 44.5116ZM76.9705 44.5116H74.6596V40.2657H76.9705V40.7062H75.1416V42.0729H76.8605V42.5079H75.1416V44.0711H76.9705V44.5116ZM79.9607 44.5116V40.2657H80.4426V44.0656H82.2705V44.5105H79.9607V44.5116ZM85.3948 44.5116V40.2657H85.8767V44.0656H87.7061V44.5105H85.3948V44.5116ZM93.1989 44.5116H90.8868V40.2657H93.1989V40.7062H91.3687V42.0729H93.0883V42.5079H91.3687V44.0711H93.1989V44.5116ZM42.5961 40.248V40.8044L42.5919 40.789C42.5508 40.9744 42.4915 41.1798 42.4128 41.4017L41.9243 42.7154H42.5961V43.1626H41.755L41.2449 44.5116H40.7575L42.3977 40.248H42.5961ZM25.5675 43.1626V42.7154H26.2393L25.7562 41.4017C25.6948 41.2394 25.6322 41.0407 25.5685 40.8044V40.248H25.7735L27.405 44.5116H26.9046L26.3882 43.1626H25.5675ZM30.2768 44.5116V40.2657H30.7588V44.0656H32.5878V44.5105H30.2768V44.5116ZM36.884 42.3886L37.9893 40.2657H38.5112L37.1277 42.8645V44.5105H36.6392V42.8876L35.2578 40.2646H35.7862L36.884 42.3886ZM11.8624 44.5116L11.3458 43.1626H10.5252V42.7154H11.1959L10.7139 41.4017C10.6524 41.2394 10.5899 41.0407 10.5252 40.8044V40.248H10.7301L12.3616 44.5116H11.8624ZM25.5675 40.248V40.8044L25.5632 40.789C25.5211 40.9744 25.4618 41.1798 25.3842 41.4017L24.8957 42.7154H25.5675V43.1626H24.7253L24.2142 44.5116H23.7267L25.3669 40.248H25.5675ZM21.6001 44.5116H21.0329L19.5199 42.4538L19.0854 42.8479V44.5116H18.6023V40.2657H19.0843V42.371L20.9661 40.2657H21.5376L19.8694 42.1105L21.6001 44.5116ZM10.5252 43.1626H9.68298L9.17291 44.5116H8.68549L10.3257 40.248H10.5252V40.8044L10.5209 40.789C10.4799 40.9744 10.4206 41.1798 10.3418 41.4017L9.85444 42.7154H10.5252V43.1626Z" fill="#231F20"/>
<path d="M33.2315 29.0807L30.6326 35.6682C30.5916 35.783 30.5193 35.8846 30.418 35.9729C30.3156 36.0623 30.1883 36.1053 30.0373 36.1053H28.8145L37.875 13.4351H39.4818L48.5444 36.1053H47.3075C47.1652 36.1053 47.0444 36.0667 46.9484 35.9894C46.8514 35.9099 46.7781 35.8051 46.7252 35.6682L44.7388 30.6627L44.1112 29.0807L43.6389 27.8773L39.1151 16.4225C39.0428 16.2458 38.9717 16.0394 38.9016 15.8032C38.8304 15.5691 38.7538 15.3218 38.6708 15.0613C38.6007 15.3218 38.5285 15.5668 38.4573 15.7954C38.3861 16.0261 38.316 16.2403 38.2449 16.4379L33.72 27.8763L33.2315 29.0807Z" fill="#282827"/>
<path d="M52.0297 36.1053V13.4351H52.8105C52.9528 13.4351 53.0671 13.455 53.1545 13.4892C53.2408 13.5267 53.3303 13.6051 53.423 13.7309L67.7579 33.3841C67.7277 33.0605 67.7126 32.7526 67.7126 32.46V13.4351H69.1037V36.1053H68.3391C68.0965 36.1053 67.9035 36.0005 67.7611 35.7929L53.3766 16.1089C53.4068 16.4324 53.4241 16.7349 53.4241 17.0153V36.1053H52.0297Z" fill="#282827"/>
<path d="M99.4719 36.1053V13.4351H112.735V14.7941H101.06V23.9339H110.782V25.294H101.06V34.7431H112.735V36.1053H99.4719Z" fill="#282827"/>
<path d="M125.085 24.5699C125.595 24.5113 126.071 24.413 126.514 24.2773C127.295 24.0377 127.951 23.6933 128.485 23.2429C129.019 22.7957 129.431 22.2548 129.716 21.6233C130.001 20.9918 130.144 20.2809 130.144 19.4893C130.144 17.8697 129.628 16.6741 128.594 15.897C127.743 15.2578 126.572 14.8813 125.085 14.7687V13.4616C127.155 13.5775 128.737 14.0754 129.832 14.952C131.099 15.9632 131.734 17.4448 131.734 19.3944C131.734 20.2588 131.587 21.0481 131.295 21.7602C131.005 22.4745 130.582 23.1004 130.029 23.6425C129.475 24.1813 128.813 24.6273 128.039 24.9684C127.268 25.3117 126.389 25.5358 125.405 25.6396C125.662 25.7964 125.889 26.0083 126.082 26.2799L133.732 36.1031H132.342C132.178 36.1031 132.037 36.0722 131.915 36.0093C131.794 35.9453 131.674 35.8371 131.565 35.6803L125.087 27.311V24.5699H125.085ZM120.027 24.6361H123.878C124.299 24.6361 124.701 24.6129 125.085 24.5687V27.3121L124.443 26.482C124.27 26.2435 124.081 26.0756 123.878 25.9818C123.675 25.888 123.359 25.8405 122.929 25.8405H120.027V36.1042H118.437V13.4351H124.09C124.433 13.4351 124.766 13.4451 125.085 13.4627V14.7698C124.763 14.7455 124.428 14.7334 124.076 14.7334H120.025V24.6361H120.027Z" fill="#282827"/>
<path d="M137.711 36.1053V13.4351H150.978V14.7941H139.303V23.9339H149.018V25.294H139.303V34.7431H150.978V36.1053H137.711Z" fill="#282827"/>
<path d="M93.5351 20.0524C93.0212 18.6547 92.3021 17.4613 91.3763 16.4777C90.4513 15.4896 89.3403 14.74 88.05 14.2167C86.759 13.6934 85.3261 13.4351 83.7483 13.4351H75.6915V18.0122H77.281V14.7952H83.7384C85.0737 14.7952 86.2923 15.0193 87.3942 15.4664C88.4953 15.9135 89.4341 16.5638 90.2096 17.416C90.9851 18.2695 91.5845 19.3127 92.0138 20.5436C92.4416 21.7757 92.6567 23.1832 92.6567 24.7608C92.6567 26.3528 92.4416 27.7648 92.0138 28.9957C91.5845 30.2266 90.9843 31.271 90.2096 32.1244C89.4341 32.9755 88.4961 33.6269 87.3942 34.074C86.2923 34.52 85.0737 34.7441 83.7384 34.7441H77.281V31.5304H75.6915V36.1064H83.7483C85.3261 36.1064 86.759 35.8459 88.05 35.3237C89.3403 34.8038 90.4513 34.0486 91.3763 33.0616C92.3021 32.0769 93.0219 30.8857 93.5351 29.4892C94.0499 28.0905 94.3068 26.5162 94.3068 24.7619C94.3068 23.0198 94.0491 21.4489 93.5351 20.0524Z" fill="#282827"/>
<path fill-rule="evenodd" clip-rule="evenodd" d="M26.8556 33.0705C26.8814 33.0981 26.6668 33.2791 26.6291 33.3189C24.3904 35.6726 20.8069 36.8075 16.8741 36.2522C12.0483 35.5732 8.78948 31.7976 7.74022 27.2404C7.16545 24.741 7.25387 21.9026 8.11226 19.454C8.3797 18.6923 8.73017 17.9504 9.16044 17.2438L11.8931 18.5267C8.62557 23.7164 9.94013 32.0537 15.8119 34.3721C17.8651 35.1824 20.9126 35.156 23.1406 34.1878C24.1337 33.7561 25.1485 32.8851 25.6693 32.4136C25.7189 32.3684 26.0198 32.1509 26.2603 32.417L26.8556 33.0705ZM15.3676 12.4183C19.4395 11.2624 23.4134 12.6623 26.0273 15.3637L26.6022 15.9576C26.6097 15.9654 26.5158 16.1167 26.1018 16.6675C26.0198 16.7768 25.8796 16.9105 25.6284 16.8375C25.4429 16.7845 25.2218 16.6079 25.0589 16.5086C24.5564 16.2017 24.1532 15.9643 23.794 15.7733C22.9841 15.3428 22.3975 15.144 21.4011 14.8758C19.666 14.4099 17.6084 14.6141 15.9315 15.2324L15.3676 12.4183Z" fill="#19B8CA"/>
<path d="M14.6782 17.6678L12.584 16.2393L10.3453 17.4117L11.7408 15.2689L10.5966 12.9759L12.6886 14.4055L14.9295 13.232L13.532 15.3748L14.6782 17.6678Z" fill="#19B8CA"/>
<path d="M13.8565 8.12048L11.7645 6.68973L9.52252 7.86437L10.9201 5.72043L9.77379 3.42856L11.8669 4.85822L14.1067 3.68358L12.7102 5.82752L13.8565 8.12048Z" fill="#19B8CA"/>
<path d="M6.61844 14.4742L4.52747 13.0467L2.28552 14.2202L3.68202 12.0763L2.53786 9.78333L4.62884 11.213L6.86971 10.0394L5.47321 12.1834L6.61844 14.4742Z" fill="#19B8CA"/>
<path d="M215.804 43.3862C215.804 43.7273 215.684 43.9934 215.442 44.1843C215.2 44.3743 214.874 44.4703 214.46 44.4703C214.012 44.4703 213.667 44.4095 213.425 44.2925V43.8576C213.581 43.9238 213.749 43.9757 213.932 44.0155C214.115 44.0552 214.297 44.0739 214.476 44.0739C214.769 44.0739 214.99 44.0166 215.138 43.904C215.286 43.7913 215.36 43.6324 215.36 43.4304C215.36 43.2957 215.333 43.1852 215.281 43.1003C215.228 43.0153 215.14 42.9357 215.017 42.8629C214.895 42.7911 214.706 42.7072 214.455 42.6167C214.104 42.4875 213.851 42.3341 213.701 42.1586C213.552 41.983 213.475 41.7523 213.475 41.4663C213.475 41.1683 213.585 40.932 213.804 40.7543C214.024 40.5788 214.313 40.4904 214.673 40.4904C215.049 40.4904 215.395 40.56 215.71 40.7013L215.572 41.0921C215.262 40.9585 214.958 40.8901 214.662 40.8901C214.429 40.8901 214.247 40.942 214.117 41.0435C213.985 41.1473 213.919 41.2886 213.919 41.4719C213.919 41.6055 213.944 41.7158 213.992 41.8009C214.04 41.887 214.121 41.9664 214.236 42.0382C214.352 42.1089 214.528 42.1884 214.763 42.2745C215.159 42.4202 215.431 42.5736 215.581 42.7403C215.729 42.906 215.804 43.1212 215.804 43.3862Z" fill="#231F20"/>
<path d="M208.544 42.4146C208.779 42.397 208.958 42.3352 209.078 42.2303C209.224 42.1044 209.295 41.9156 209.295 41.6628C209.295 41.4067 209.222 41.2223 209.074 41.1097C208.956 41.0192 208.779 40.9629 208.544 40.9474V40.5478C208.932 40.5677 209.222 40.6571 209.419 40.8172C209.639 40.9993 209.751 41.2731 209.751 41.6375C209.751 42.1497 209.499 42.4952 208.992 42.6752L210.018 44.4139H209.499L208.583 42.8043H208.545V42.4146H208.544ZM207.793 42.4202H208.394C208.448 42.4202 208.497 42.4191 208.544 42.4146V42.8054H207.794V44.415H207.355V40.5445H208.391C208.445 40.5445 208.496 40.5456 208.545 40.5478V40.9474C208.49 40.9419 208.429 40.9397 208.367 40.9397H207.795V42.4202H207.793Z" fill="#231F20"/>
<path d="M203.81 44.4135H201.704V40.5429H203.81V40.9447H202.143V42.1922H203.709V42.5864H202.143V44.0127H203.81V44.4135Z" fill="#231F20"/>
<path d="M195.774 44.4135V40.5429H196.214V44.0072H197.88V44.4135H195.774Z" fill="#231F20"/>
<path d="M189.845 44.4135V40.5429H190.284V44.0072H191.951V44.4135H189.845Z" fill="#231F20"/>
<path d="M186.023 44.4135H183.914V40.5429H186.023V40.9447H184.354V42.1922H185.921V42.5864H184.354V44.0127H186.023V44.4135Z" fill="#231F20"/>
<path d="M180.409 44.4137H179.975L179.212 41.8216C179.176 41.7068 179.137 41.5633 179.092 41.3877C179.046 41.2122 179.023 41.1062 179.022 41.072C178.985 41.3061 178.923 41.5599 178.84 41.8382L178.1 44.4126H177.666L176.66 40.5421H177.127L177.724 42.9333C177.806 43.2678 177.867 43.5714 177.905 43.8441C177.95 43.5206 178.02 43.2049 178.111 42.8957L178.788 40.5421H179.255L179.965 42.9167C180.048 43.1894 180.119 43.4985 180.175 43.8441C180.207 43.5923 180.269 43.2876 180.361 42.9277L180.957 40.5421H181.422L180.409 44.4137Z" fill="#231F20"/>
<path d="M174.164 44.4135H172.058V40.5429H174.164V40.9447H172.497V42.1922H174.062V42.5864H172.497V44.0127H174.164V44.4135Z" fill="#231F20"/>
<path d="M166.89 44.4576C166.728 44.4576 166.601 44.4344 166.509 44.3848V44.0017C166.631 44.037 166.757 44.0558 166.89 44.0558C167.061 44.0558 167.191 44.0017 167.28 43.8957C167.368 43.7908 167.413 43.6384 167.413 43.4387V40.5429H167.852V43.4C167.852 43.7356 167.768 43.9961 167.603 44.1805C167.438 44.3649 167.201 44.4576 166.89 44.4576Z" fill="#231F20"/>
</svg>
