<svg width="20" height="13" viewBox="0 0 20 13" fill="none" xmlns="http://www.w3.org/2000/svg">
<path d="M13.0555 5.4046H18.2936V5.19143L15.819 2.78555H13.0555V5.4046ZM13.0555 6.27761V9.33296C13.4537 8.80296 14.0876 8.46015 14.8015 8.46015C15.6965 8.46015 16.4656 8.99885 16.8024 9.76968H18.2936V6.27761H13.0555ZM12.1825 9.76968V1.91254V1.03952H1.70627V9.76968H2.32438C2.66117 8.99885 3.43033 8.46015 4.32532 8.46015C5.2203 8.46015 5.98946 8.99885 6.32625 9.76968H12.1825ZM13.0555 1.91254H16.1734L19.1666 4.82259V9.76968C19.1666 10.2518 18.7757 10.6427 18.2936 10.6427H16.984C16.984 11.8481 16.0069 12.8252 14.8015 12.8252C13.5961 12.8252 12.619 11.8481 12.619 10.6427H6.50785C6.50785 11.8481 5.5307 12.8252 4.32532 12.8252C3.11993 12.8252 2.14278 11.8481 2.14278 10.6427H1.70627C1.22411 10.6427 0.833252 10.2518 0.833252 9.76968V1.03952C0.833252 0.557366 1.22411 0.166504 1.70627 0.166504H12.1825C12.6646 0.166504 13.0555 0.557366 13.0555 1.03952V1.91254ZM4.32532 11.9522C5.04855 11.9522 5.63484 11.3659 5.63484 10.6427C5.63484 9.91946 5.04855 9.33317 4.32532 9.33317C3.60209 9.33317 3.01579 9.91946 3.01579 10.6427C3.01579 11.3659 3.60209 11.9522 4.32532 11.9522ZM14.8015 11.9522C15.5247 11.9522 16.111 11.3659 16.111 10.6427C16.111 9.91946 15.5247 9.33317 14.8015 9.33317C14.0783 9.33317 13.492 9.91946 13.492 10.6427C13.492 11.3659 14.0783 11.9522 14.8015 11.9522Z" fill="#4E4B66"/>
</svg>
